<?xml version="1.0" encoding="utf-8"?>
<!-- Generator: Adobe Illustrator 19.0.0, SVG Export Plug-In . SVG Version: 6.00 Build 0)  -->
<svg version="1.1" id="Layer_1" xmlns="http://www.w3.org/2000/svg" xmlns:xlink="http://www.w3.org/1999/xlink" x="0px" y="0px"
	 viewBox="0 0 40 40" style="enable-background:new 0 0 40 40;" xml:space="preserve">
<g id="XMLID_5_">
	<g id="XMLID_1_">
		<path id="XMLID_8_" d="M0.7,39.5L0.7,39.5c-0.8-0.8-0.8-2.2,0-3L36.2,0.7c0.8-0.8,2.2-0.8,3,0l0,0c0.8,0.8,0.8,2.2,0,3L3.8,39.5
			C2.9,40.3,1.6,40.3,0.7,39.5z"/>
	</g>
	<g id="XMLID_6_">
		<path id="XMLID_7_" d="M36.3,39.4L0.6,3.9c-0.8-0.8-0.8-2.2,0-3l0,0c0.8-0.8,2.2-0.8,3,0l35.7,35.5c0.8,0.8,0.8,2.2,0,3l0,0
			C38.5,40.2,37.2,40.2,36.3,39.4z"/>
	</g>
</g>
</svg>
