<svg width="92" height="93" viewBox="0 0 92 93" fill="none" xmlns="http://www.w3.org/2000/svg">
<g id="Logomark">
<path id="Isometric square" d="M27.7621 43.0109C29.4814 36.6187 36.0759 30.0481 42.4913 28.335L82.4883 17.6551C88.9037 15.942 92.7108 19.7352 90.9915 26.1275L80.2727 65.9795C78.5534 72.3718 71.9589 78.9424 65.5435 80.6555L25.5465 91.3354C19.1311 93.0484 15.3241 89.2552 17.0433 82.863L27.7621 43.0109Z" fill="#9E77ED"/>
<path id="Isometric square_2" d="M11.7275 27.0341C13.4468 20.6419 20.0413 14.0713 26.4568 12.3582L66.4538 1.67827C72.8692 -0.0347808 76.6763 3.75844 74.957 10.1507L64.2382 50.0027C62.5189 56.395 55.9244 62.9656 49.509 64.6787L9.51199 75.3586C3.09652 77.0716 -0.710504 73.2784 1.00878 66.8862L11.7275 27.0341Z" fill="#6941C6"/>
</g>
</svg>
