<svg width="56" height="58" viewBox="0 0 56 58" fill="none" xmlns="http://www.w3.org/2000/svg">
<g id="Logomark">
<path id="Isometric square" d="M16.8986 26.8273C17.9451 22.8642 21.9591 18.7904 25.8642 17.7283L50.2102 11.1067C54.1152 10.0446 56.4325 12.3964 55.386 16.3596L48.8616 41.0679C47.815 45.0311 43.801 49.1049 39.8959 50.167L15.55 56.7885C11.6449 57.8506 9.32759 55.4988 10.3741 51.5356L16.8986 26.8273Z" fill="#4774F8"/>
<path id="Isometric square_2" d="M7.13856 16.9221C8.18508 12.9589 12.1991 8.8851 16.1042 7.82301L40.4502 1.20144C44.3552 0.139354 46.6726 2.49115 45.626 6.45434L39.1016 31.1626C38.0551 35.1258 34.041 39.1996 30.1359 40.2617L5.78996 46.8832C1.88489 47.9453 -0.432428 45.5935 0.614089 41.6304L7.13856 16.9221Z" fill="#2E5ADE"/>
</g>
</svg>
